<?xml version="1.0" encoding="UTF-8"?>
<!DOCTYPE svg PUBLIC "-//W3C//DTD SVG 1.1//EN" "http://www.w3.org/Graphics/SVG/1.1/DTD/svg11.dtd">
<!-- Creator: CorelDRAW 2018 (64-Bit) -->
<svg xmlns="http://www.w3.org/2000/svg" xml:space="preserve" width="0.694441in" height="0.694441in" version="1.1" style="shape-rendering:geometricPrecision; text-rendering:geometricPrecision; image-rendering:optimizeQuality; fill-rule:evenodd; clip-rule:evenodd"
viewBox="0 0 694.44 694.44"
 xmlns:xlink="http://www.w3.org/1999/xlink">
 <defs>
  <style type="text/css">
   <![CDATA[
    .fil0 {fill:#24292E}
   ]]>
  </style>
 </defs>
 <g id="Layer_x0020_1">
  <metadata id="CorelCorpID_0Corel-Layer"/>
  <g id="InFace">
   <path class="fil0" d="M231.67 391.7l-87.34 0c0,-7.26 1.02,-11.93 5.41,-17.91 9.55,-13.01 20.87,-10.6 27.18,-12.15 4.71,-1.15 8.54,-5.09 10.01,-9.66 3.38,-10.55 -2.07,-65.43 2.52,-76.13 4.87,-11.35 33.82,-15.92 53.91,-29.31 1.06,-0.7 1.98,-1.41 2.94,-2.08l8.12 -6.51c9.8,-9.06 14.54,-17.33 20.54,-29.3 0.67,-1.34 0.95,-2.33 1.52,-3.51 1.31,0.96 1.76,2.66 2.59,4.27 4.5,8.89 13.89,22.52 20.85,29.45 3.92,3.91 6.86,6.81 11.25,10.24 0.78,0.62 1.28,0.86 2.16,1.5 18.59,13.44 44.36,19.83 67.03,23.05 6,0.85 20.88,2.41 26.45,2.35l13.52 0.66c4.44,0.67 9.66,-0.15 14.11,0.53l40.77 2.2c9.54,1.32 25.47,4 29.77,13.67 3.3,7.41 1.7,44.76 1.94,55.68 0.11,4.6 2.28,7.09 4.7,9.48 7.91,7.81 17.26,-0.61 30.65,12.79 4.49,4.49 8.11,11.87 8.11,20.7l-87.8 0c0.22,-2.67 0.92,-4.61 0.92,-7.77 0,-38.27 -51.58,-50.56 -69.06,-16.48 -5.48,10.7 -3.19,16.28 -3.19,24.25l-88.24 0c0.13,-5.86 2.95,-11.13 -2.44,-22.72 -11.61,-24.94 -43.88,-28.92 -60.99,-8.7 -3.16,3.73 -5.58,8.08 -7.16,13.42 -3.01,10.17 -0.74,13.06 -0.74,18zm-73.16 -55.79c-1.53,0.36 -4.21,1.22 -5.49,1.83 -7.96,-34.21 -8.69,-64.94 -8.69,-100.14 0,-18.1 6.32,-38.77 12.6,-54.61 6.11,-15.41 14.93,-29.27 24.88,-42.33 7.17,-9.41 18.76,-20.53 28.37,-27.87 9.98,-7.64 15.95,-11.46 27.36,-17.45 28.91,-15.18 68.24,-23.25 100.67,-23.25 31.85,0 52.1,0.52 83.22,8.23 10.92,2.7 17.19,5.06 27.11,9.01 2.84,1.13 5.57,2.28 8.25,3.63 38.53,19.43 63.75,45.94 79.8,88.93 8.46,22.67 13.79,51.7 13.79,82.7 0,7.82 -0.35,14.24 -0.44,21.97l-0.67 10.76c-0.78,5.11 -0.72,12.92 -1.83,21.03 -0.5,3.64 -0.76,6.68 -1.26,10.17 -0.2,1.43 -1.06,9.06 -1.71,9.71 -0.67,0.67 -5.51,-1.67 -8.27,-2.32 0,-17.81 1.56,-37.26 -3.83,-52.42 -9.05,-25.45 -40,-33.25 -64.31,-34.45 -4.14,-0.2 -9.47,-0.43 -13.32,-0.85 -6.89,-0.77 -20.57,-0.42 -27.84,-0.5 -2.64,-0.04 -3.44,-0.5 -6.37,-0.49 -2.24,0.01 -5.12,0.17 -7.3,-0.01 -22.45,-1.86 -38.28,-2.35 -60.67,-9.75 -17.11,-5.67 -23.38,-10.8 -35.65,-21.05 -3.07,-2.57 -10.36,-12.44 -12.45,-15.9 -3.53,-5.87 -6.67,-12.24 -9.06,-19.29 -2.37,-6.96 -4.54,-14.56 -5.92,-22.43 -0.82,-4.69 -1.63,-7.1 -4.19,-9.99 -5.83,-6.59 -18.05,-6.09 -23.26,2.59 -3.7,6.15 -3.77,36.76 -22.06,59.33l-7.27 7.37c-2.51,2.45 -8.27,6.03 -11.54,7.66 -4.41,2.18 -8.49,4.14 -13.32,5.88 -22.06,7.99 -34.56,12.76 -44.31,32.52 -5.37,10.89 -5.02,21.31 -5.02,33.39 0,12.81 0,25.61 0,38.41zm-31.09 19.2c0,1.14 -3.33,5.19 -4.77,7.57 -3.1,5.15 -5.72,11.7 -6.86,17.84l-1.17 11.17 -61.28 0c-16.65,0 -20.61,29.27 3.2,29.27l582.09 0c14.23,0 20.9,-15.27 12.24,-24.59 -1.89,-2.03 -5.37,-4.68 -9.04,-4.68l-62.19 0c0,-9.5 -2.91,-21.31 -7.86,-28.72 -2.66,-3.99 -1.01,-3.87 0.81,-14 0.98,-5.45 1.74,-10.33 2.5,-15.79 7.71,-54.93 7.78,-123.19 -16.18,-174.55 -7.63,-16.36 -15.46,-29.83 -27.15,-43.73 -18.53,-22.06 -37.11,-35.19 -62.63,-48.02 -2,-1.01 -3.76,-1.68 -5.64,-2.59 -3.18,-1.54 -7.72,-3.28 -11.04,-4.5 -3.96,-1.46 -7.92,-2.87 -11.88,-4.13 -8.04,-2.56 -16.61,-4.81 -25.44,-6.57 -16.61,-3.31 -36.83,-6.29 -56.81,-6.28 -4.99,0 -10.3,-0.96 -14.89,-0.27 -3.51,0.54 -16.92,0.5 -22.67,1.11 -8.57,0.91 -11.83,0.72 -21.82,2.42 -26.53,4.5 -48.42,10.4 -72.3,22.34 -14.26,7.13 -26.23,14.55 -38.52,24.59 -6.04,4.94 -10.98,9.59 -16.47,15.08 -7.71,7.71 -15.51,17.13 -21.47,26.09 -10.06,15.13 -15.04,24.09 -21.92,41.18 -6.05,15.03 -11,34.28 -12.67,50.89l-1 15.01 1.51 45.61c1.24,9.09 1.28,17.69 2.87,28.68 0.72,4.98 1.33,9.04 2.15,13.85l4.39 19.39c0.28,0.92 1.89,6 1.89,6.35z"/>
   <path class="fil0" d="M346.9 623.53c28.22,0 50.17,-7.02 69.05,-16.46 4.6,-2.3 9.14,-4.76 13.45,-7.59l24.39 -18.59c3.26,-3.31 7.54,-6.42 10.82,-10.67l14.7 -16.85c0.93,-1.19 1.46,-2 2.38,-3.11 13.83,-16.74 33.22,-51.79 41.59,-71.36 1.98,-4.65 5.62,-10.78 5.62,-15.87 0,-14.26 -21.8,-21.29 -28.74,-4.06 -0.59,1.47 -0.96,2.05 -1.57,3.46 -3.17,7.37 -8.78,19.56 -12.65,26.22 -1.27,2.19 -2.11,4.27 -3.48,6.57 -1.28,2.14 -2.23,4.11 -3.42,6.18 -1.12,1.96 -2.45,4.06 -3.61,6 -1.24,2.08 -2.37,3.96 -3.69,5.92 -1.36,2.04 -2.45,4.01 -3.93,6.13 -5.61,8.07 -12.27,17.25 -18.82,24.61 -0.98,1.11 -1.5,1.46 -2.39,2.63 -1.4,1.83 -2.99,3.22 -4.69,4.92l-12.54 11.69c-33.16,27.87 -72.77,37.68 -115.83,26.39 -13.55,-3.55 -28.53,-11.09 -39.32,-19.21l-10.98 -8.69c-3.78,-2.9 -13.72,-12.85 -17.24,-17.05 -11.82,-14.14 -16.18,-20.07 -26.74,-36.82 -4.65,-7.37 -9.91,-17.34 -13.78,-25.08 -2.29,-4.57 -4.45,-8.4 -6.44,-13.22 -0.53,-1.3 -0.92,-1.88 -1.48,-3.09 -0.62,-1.33 -0.94,-2.31 -1.52,-3.5 -2.63,-5.42 -5.2,-14.18 -15.55,-14.18 -3.36,0 -6.78,1.34 -8.71,2.72 -2.23,1.61 -3.82,3.78 -5.02,6.41 -3,6.57 0.63,12.43 2.89,17.71l21.45 42.11c5.7,9.51 9.53,15.69 15.92,24.78l7.44 9.94c11.91,16.09 28.41,31.26 44.42,42.92 22.28,16.21 54.8,28.09 88.06,28.09z"/>
   <path class="fil0" d="M623.09 549.45l0 58.99 -53.95 0c-10.14,0 -18.24,3.5 -19.1,14.29 -0.35,4.32 2.46,9.36 4.8,11.44 3.16,2.81 7.11,3.99 12.93,3.99l83.22 0c1.06,0 1.37,-0.31 1.37,-1.37l0 -84.14c0,-5.19 -1.33,-8.85 -3.78,-11.76 -8.33,-9.93 -25.49,-3.91 -25.49,8.56z"/>
   <path class="fil0" d="M42.37 549l0 89.16 85.05 0c4.85,0 9.24,-1.38 11.79,-3.76 7.47,-6.96 6.32,-17.12 -0.28,-22.39 -3.79,-3.02 -7.68,-3.58 -14.26,-3.58l-53.04 0 0 -57.61c0,-11.94 -14,-20.13 -24.52,-11.25 -2.18,1.85 -4.75,6.16 -4.75,9.43z"/>
   <path class="fil0" d="M565.02 57.44l58.07 0 0 59.91c0,8.73 14.28,19.28 25.28,7.89 2.65,-2.74 3.99,-6.8 3.99,-12.01l0 -85.05 -88.25 0c-4.35,0 -8.04,2.26 -10.06,4.57 -9.45,10.8 -0.64,24.69 10.98,24.69z"/>
   <path class="fil0" d="M42.37 116.88c0,6.5 6.61,13.26 14.63,13.26 8.3,0 14.63,-7.07 14.63,-15.55l0 -57.16 57.16 0c13.04,0 20.49,-14.16 11.76,-24.56 -1.73,-2.07 -5.91,-4.7 -9.47,-4.7l-88.71 0 0 88.71z"/>
  </g>
 </g>
</svg>
