<?xml version="1.0" encoding="UTF-8"?>
<!DOCTYPE svg PUBLIC "-//W3C//DTD SVG 1.1//EN" "http://www.w3.org/Graphics/SVG/1.1/DTD/svg11.dtd">
<!-- Creator: CorelDRAW 2018 (64-Bit) -->
<svg xmlns="http://www.w3.org/2000/svg" xml:space="preserve" width="0.694441in" height="0.694441in" version="1.1" style="shape-rendering:geometricPrecision; text-rendering:geometricPrecision; image-rendering:optimizeQuality; fill-rule:evenodd; clip-rule:evenodd"
viewBox="0 0 694.44 694.44"
 xmlns:xlink="http://www.w3.org/1999/xlink">
 <defs>
  <style type="text/css">
   <![CDATA[
    .fil0 {fill:#24292E}
   ]]>
  </style>
 </defs>
 <g id="Layer_x0020_1">
  <metadata id="CorelCorpID_0Corel-Layer"/>
  <path id="InVoice" class="fil0" d="M347.3 462.15c52.89,0 95.79,-42.91 95.79,-95.79l0 -229.85c0,-52.89 -42.9,-95.79 -95.79,-95.79 -52.89,0 -95.79,42.9 -95.79,95.79l0 229.85c0,52.89 42.9,95.79 95.79,95.79zm134.06 -153.24l0 57.5c0,74.04 -60,134.11 -134.11,134.11 -74.11,0 -134.11,-60 -134.11,-134.11l0 -57.5 -38.32 0 0 57.5c0,88.75 67.07,161.81 153.24,171.31l0 77.65 -76.63 0.02 0 38.31 191.56 -0.02 0 -38.31 -76.63 0.02 0 -77.65c86.18,-9.5 153.24,-82.56 153.24,-171.31l0 -57.5 -38.32 -0.02 0.07 0z"/>
 </g>
</svg>
