<?xml version="1.0" encoding="UTF-8"?>
<!DOCTYPE svg PUBLIC "-//W3C//DTD SVG 1.1//EN" "http://www.w3.org/Graphics/SVG/1.1/DTD/svg11.dtd">
<!-- Creator: CorelDRAW 2018 (64-Bit) -->
<svg xmlns="http://www.w3.org/2000/svg" xml:space="preserve" width="0.694441in" height="0.694441in" version="1.1" style="shape-rendering:geometricPrecision; text-rendering:geometricPrecision; image-rendering:optimizeQuality; fill-rule:evenodd; clip-rule:evenodd"
viewBox="0 0 694.44 694.44"
 xmlns:xlink="http://www.w3.org/1999/xlink">
 <defs>
  <style type="text/css">
   <![CDATA[
    .fil0 {fill:#24292E}
   ]]>
  </style>
 </defs>
 <g id="Layer_x0020_1">
  <metadata id="CorelCorpID_0Corel-Layer"/>
  <g id="_2203209915328">
   <path class="fil0" d="M347.22 513.87c18.4,0 33.34,14.94 33.34,33.34l0 33.34c0,18.4 -14.94,33.34 -33.34,33.34 -18.4,0 -33.34,-14.94 -33.34,-33.34l0 -33.34c0,-18.4 14.94,-33.34 33.34,-33.34zm0 -333.31c-18.4,0 -33.34,-14.94 -33.34,-33.34l0 -33.34c0,-18.4 14.94,-33.34 33.34,-33.34 18.4,0 33.34,14.94 33.34,33.34l0 33.34c0,18.4 -14.94,33.34 -33.34,33.34zm233.33 133.31c18.4,0 33.34,14.94 33.34,33.34 0,18.4 -14.94,33.34 -33.34,33.34l-33.34 0c-18.4,0 -33.34,-14.94 -33.34,-33.34 0,-18.4 14.94,-33.34 33.34,-33.34l33.34 0zm-399.98 33.34c0,18.4 -14.94,33.34 -33.34,33.34l-33.34 0c-18.4,0 -33.34,-14.94 -33.34,-33.34 0,-18.4 14.94,-33.34 33.34,-33.34l33.34 0c18.4,0 33.34,14.94 33.34,33.34zm331.65 117.85l23.56 23.56c13.02,13.02 13.02,34.13 0,47.15 -13.02,13.02 -34.13,13.02 -47.15,0l-23.56 -23.56c-13.02,-13.02 -13.02,-34.13 0,-47.15 13.02,-13.02 34.13,-13.02 47.15,0zm-330 -235.71l-23.56 -23.56c-13.02,-13.02 -13.02,-34.13 0,-47.15 13.02,-13.02 34.13,-13.02 47.15,0l23.56 23.56c13.02,13.02 13.02,34.13 0,47.15 -13.02,13.02 -34.13,13.02 -47.15,0zm330 0c-13.02,13.02 -34.13,13.02 -47.15,0 -13.02,-13.02 -13.02,-34.13 0,-47.15l23.56 -23.56c13.02,-13.02 34.13,-13.02 47.15,0 13.02,13.02 13.02,34.13 0,47.15l-23.56 23.56zm-330 235.71c13.02,-13.02 34.13,-13.02 47.15,0 13.02,13.02 13.02,34.13 0,47.15l-23.56 23.56c-13.02,13.02 -34.13,13.02 -47.15,0 -13.02,-13.02 -13.02,-34.13 0,-47.15l23.56 -23.56z"/>
   <path class="fil0" d="M347.22 213.89c-73.65,0 -133.33,59.69 -133.33,133.33 0,73.65 59.69,133.33 133.33,133.33 73.65,0 133.33,-59.69 133.33,-133.33 0,-73.65 -59.69,-133.33 -133.33,-133.33zm0 216.68c-46.02,0 -83.35,-37.33 -83.35,-83.35 0,-46.02 37.33,-83.35 83.35,-83.35 46.02,0 83.35,37.33 83.35,83.35 0,46.02 -37.33,83.35 -83.35,83.35z"/>
  </g>
 </g>
</svg>
