<?xml version="1.0"?>
<svg xmlns="http://www.w3.org/2000/svg" height="512px" viewBox="-71 0 392 392.5" width="512px"><path d="m162.351562 82 4.898438-17-80.898438-.699219 5.597657 17zm0 0" fill="#FFFFFF"/><path d="m172.949219 45.101562 13-45.101562h-120.898438l14.699219 44.199219zm0 0" fill="#FFFFFF"/><path d="m168.449219 102.101562-82.699219-.902343c-49.601562 11.300781-85.5 56.199219-85.5 107.300781v154c.046875 16.546875 13.453125 29.953125 30 30h190c16.546875-.046875 29.953125-13.453125 30-30v-154c.054688-49.925781-33.539062-93.621094-81.800781-106.398438zm-17.300781 121.097657h13.703124c5.519532 0 10 4.476562 10 10 0 5.523437-4.480468 10-10 10h-13.703124c-4.488282 18.988281-20.917969 32.773437-40.398438 33.902343l38.398438 36.296876c2.984374 2.808593 3.945312 7.15625 2.421874 10.957031-1.527343 3.800781-5.226562 6.277343-9.320312 6.246093-2.558594-.003906-5.019531-.96875-6.898438-2.703124l-56.601562-53.5c-2.972656-2.824219-3.925781-7.175782-2.40625-10.984376 1.519531-3.808593 5.203125-6.308593 9.304688-6.3125h22.703124c9.382813.015626 17.910157-5.460937 21.796876-14h-44.398438c-5.523438 0-10-4.480468-10-10 0-5.523437 4.476562-10 10-10h44.398438c-3.917969-8.515624-12.425782-13.976562-21.796876-14h-22.703124c-5.519532 0-10-4.480468-10-10 0-5.523437 4.480468-10 10-10h79.203124c5.519532 0 10 4.476563 10 10 0 5.519532-4.480468 10-10 10h-19.703124c2.808593 4.3125 4.839843 9.085938 6 14.097657zm0 0" fill="#FFFFFF"/></svg>
