<?xml version="1.0"?>
<svg xmlns="http://www.w3.org/2000/svg" height="512px" viewBox="-71 0 392 392.5" width="512px"><path d="m162.351562 82 4.898438-17-80.898438-.699219 5.597657 17zm0 0" fill="#FFFFFF"/><path d="m168.449219 102.101562-82.699219-.902343c-49.601562 11.300781-85.5 56.199219-85.5 107.300781v154c.046875 16.546875 13.453125 29.953125 30 30h190c16.546875-.046875 29.953125-13.453125 30-30v-154c.054688-49.925781-33.539062-93.621094-81.800781-106.398438zm3.101562 222.296876-6.300781 1.902343c-4.335938 1.355469-8.855469 2.027344-13.398438 2-7.230468-.027343-14.351562-1.738281-20.800781-5-4.574219-2.296875-9.71875-3.203125-14.800781-2.601562l-17.800781 2.101562c-3.960938.519531-7.839844-1.421875-9.800781-4.902343-2.015626-3.457032-1.777344-7.78125.601562-11l4.800781-6.5c3.617188-4.980469 5.796875-10.863282 6.300781-17v-.296876c.199219-3 .296876-6 .296876-9h-18.796876c-5.523437 0-10-4.480468-10-10 0-5.523437 4.476563-10 10-10h16.796876c-.296876-1.703124-.699219-3.402343-1.097657-5.101562-1.601562-6.210938-2.472656-12.585938-2.601562-19-.011719-4.894531.902343-9.746094 2.699219-14.300781 1.769531-4.566407 4.457031-8.71875 7.902343-12.199219 3.511719-3.621094 7.734375-6.480469 12.398438-8.398438 4.84375-2.03125 10.050781-3.050781 15.300781-3 19.601562 0 33 10.398438 36.898438 28.597657 1.132812 5.386719-2.3125 10.667969-7.699219 11.800781-5.382813 1.132812-10.667969-2.316406-11.800781-7.699219-1.199219-5.902343-4.296876-12.699219-17.296876-12.699219-2.601562-.019531-5.179687.457032-7.601562 1.398438-2.171875.90625-4.140625 2.234375-5.800781 3.898438-1.605469 1.613281-2.835938 3.558593-3.597657 5.703124-.882812 2.191407-1.324218 4.535157-1.300781 6.898438.125 4.828125.796875 9.625 2 14.300781.800781 3.300781 1.398438 6.5 2 9.800781h19.699219c5.523438 0 10 4.476563 10 10 0 5.519532-4.476562 10-10 10h-18.101562c0 3.5-.097657 7.097657-.398438 10.597657v.300781c-.425781 5.316406-1.640625 10.539062-3.601562 15.5 8.132812-.488281 16.246093 1.203125 23.5 4.898438 5.921874 3.09375 12.828124 3.707031 19.203124 1.703124l6.296876-1.902343c5.304687-1.628907 10.921874 1.347656 12.550781 6.652343 1.628906 5.300782-1.347657 10.917969-6.648438 12.546876zm0 0" fill="#FFFFFF"/><path d="m172.949219 45.101562 13-45.101562h-120.898438l14.699219 44.199219zm0 0" fill="#FFFFFF"/></svg>
