<?xml version="1.0"?>
<svg xmlns="http://www.w3.org/2000/svg" height="512px" viewBox="-71 0 392 392.5" width="512px"><path d="m162.351562 82 4.898438-17-80.898438-.699219 5.597657 17zm0 0" fill="#FFFFFF"/><path d="m172.949219 45.101562 13-45.101562h-120.898438l14.699219 44.199219zm0 0" fill="#FFFFFF"/><path d="m168.449219 102.101562-82.699219-.902343c-49.601562 11.300781-85.5 56.199219-85.5 107.300781v154c.046875 16.546875 13.453125 29.953125 30 30h190c16.546875-.046875 29.953125-13.453125 30-30v-154c.054688-49.925781-33.539062-93.621094-81.800781-106.398438zm5.402343 104.199219-38.601562 54.5v.398438h21.398438c5.523437 0 10 4.476562 10 10 0 5.523437-4.476563 10-10 10h-21.398438v3.902343h21.398438c5.523437 0 10 4.476563 10 10 0 5.519532-4.476563 10-10 10h-21.398438v14.296876c0 5.523437-4.476562 10-10 10s-10-4.476563-10-10v-14.296876h-21.398438c-5.523437 0-10-4.480468-10-10 0-5.523437 4.476563-10 10-10h21.398438v-3.902343h-21.398438c-5.523437 0-10-4.476563-10-10 0-5.523438 4.476563-10 10-10h21.398438v-.398438l-38.601562-54.5c-3.175782-4.5-2.097657-10.726562 2.402343-13.902343 4.5-3.175782 10.722657-2.097657 13.898438 2.402343l32.300781 45.597657 32.300781-45.597657c3.175781-4.5 9.398438-5.578125 13.898438-2.402343 4.5 3.175781 5.578125 9.402343 2.402343 13.902343zm0 0" fill="#FFFFFF"/></svg>
