<?xml version="1.0"?>
<svg xmlns="http://www.w3.org/2000/svg" height="512px" viewBox="-71 0 392 392.5" width="512px"><path d="m168.449219 102.101562-82.699219-.902343c-49.601562 11.300781-85.5 56.199219-85.5 107.300781v154c.046875 16.546875 13.453125 29.953125 30 30h190c16.546875-.046875 29.953125-13.453125 30-30v-154c.054688-49.925781-33.539062-93.621094-81.800781-106.398438zm-43.199219 146.796876c18.316406 0 33.828125 13.503906 36.347656 31.648437 2.519532 18.140625-8.722656 35.363281-26.347656 40.351563v8.101562c0 5.523438-4.476562 10-10 10s-10-4.476562-10-10v-8.101562c-15.785156-4.484376-26.679688-18.890626-26.699219-35.296876 0-5.523437 4.476563-10 10-10 5.523438 0 10 4.476563 10 10 0 9.222657 7.476563 16.699219 16.699219 16.699219s16.699219-7.476562 16.699219-16.699219c0-9.226562-7.476563-16.703124-16.699219-16.703124-18.316406.003906-33.828125-13.503907-36.347656-31.644532-2.519532-18.140625 8.722656-35.363281 26.347656-40.355468v-6c0-5.519532 4.476562-10 10-10s10 4.480468 10 10v6c15.785156 4.488281 26.679688 18.894531 26.699219 35.300781 0 5.523437-4.476563 10-10 10-5.523438 0-10-4.476563-10-10 0-9.222657-7.476563-16.699219-16.699219-16.699219s-16.699219 7.476562-16.699219 16.699219c0 9.222656 7.476563 16.699219 16.699219 16.699219zm0 0" fill="#FFFFFF"/><path d="m162.351562 82 4.898438-17-80.898438-.699219 5.597657 17zm0 0" fill="#FFFFFF"/><path d="m172.949219 45.101562 13-45.101562h-120.898438l14.699219 44.199219zm0 0" fill="#FFFFFF"/></svg>
