<svg xmlns="http://www.w3.org/2000/svg" height="511pt" version="1.1" viewBox="0 -15 511.9992 511" width="511pt">
<g id="surface1">
<path d="M 256 0.5 C 214.648438 0.5 181 35.148438 181 76.5 C 181 117.851562 214.648438 151.5 256 151.5 C 297.351562 151.5 331 117.851562 331 76.5 C 331 35.148438 297.351562 0.5 256 0.5 Z M 256 0.5 " style=" stroke:none;fill-rule:nonzero;fill:rgb(0%,0%,0%);fill-opacity:1;" />
<path d="M 361 271.5 C 394.089844 271.5 421 244.589844 421 211.5 C 421 178.410156 394.089844 151.5 361 151.5 C 327.910156 151.5 301 178.410156 301 211.5 C 301 244.589844 327.910156 271.5 361 271.5 Z M 361 271.5 " style=" stroke:none;fill-rule:nonzero;fill:rgb(0%,0%,0%);fill-opacity:1;" />
<path d="M 15 451.5 L 30 451.5 C 46.570312 451.5 60 438.066406 60 421.5 L 60 241.5 C 60 224.929688 46.570312 211.5 30 211.5 L 15 211.5 C 6.714844 211.5 0 218.214844 0 226.5 L 0 436.5 C 0 444.785156 6.714844 451.5 15 451.5 Z M 15 451.5 " style=" stroke:none;fill-rule:nonzero;fill:rgb(0%,0%,0%);fill-opacity:1;" />
<path d="M 90 241.5 L 90 421.5 C 90 424.523438 89.539062 427.421875 89.109375 430.324219 L 176.632812 473.589844 C 186.988281 478.761719 198.59375 481.5 210.164062 481.5 C 214.765625 481.5 345.660156 481.5 345.660156 481.5 C 356.808594 481.5 367.707031 478.410156 377.199219 472.550781 L 500.015625 385.722656 C 513.242188 375.761719 515.9375 356.921875 506.007812 343.695312 C 497 331.6875 479.542969 326.484375 464.007812 337.707031 L 371.679688 389.785156 C 369.527344 390.914062 367.140625 391.5 364.707031 391.5 C 359.300781 391.5 186.558594 391.5 193 391.5 C 184.707031 391.5 178 384.792969 178 376.5 C 178 368.210938 184.707031 361.5 193 361.5 L 331 361.5 C 347.570312 361.5 361 348.066406 361 331.5 C 361 314.929688 347.570312 301.5 331 301.5 L 260.539062 301.5 L 189.4375 254.097656 C 177.089844 245.851562 162.703125 241.5 147.835938 241.5 Z M 90 241.5 " style=" stroke:none;fill-rule:nonzero;fill:rgb(0%,0%,0%);fill-opacity:1;" />
</g>
</svg>