<?xml version="1.0" encoding="UTF-8"?>
<!DOCTYPE svg PUBLIC "-//W3C//DTD SVG 1.1//EN" "http://www.w3.org/Graphics/SVG/1.1/DTD/svg11.dtd">
<!-- Creator: CorelDRAW 2018 (64-Bit) -->
<svg xmlns="http://www.w3.org/2000/svg" xml:space="preserve" width="0.694441in" height="0.694441in" version="1.1" style="shape-rendering:geometricPrecision; text-rendering:geometricPrecision; image-rendering:optimizeQuality; fill-rule:evenodd; clip-rule:evenodd"
viewBox="0 0 694.44 694.44"
 xmlns:xlink="http://www.w3.org/1999/xlink">
 <defs>
  <style type="text/css">
   <![CDATA[
    .str0 {stroke:#24292E;stroke-width:13.89;stroke-miterlimit:2.61313}
    .fil0 {fill:none}
   ]]>
  </style>
 </defs>
 <g id="Layer_x0020_1">
  <metadata id="CorelCorpID_0Corel-Layer"/>
  <g id="InKeyBoard">
   <rect class="fil0 str0" x="24.05" y="179.63" width="646.35" height="335.19" rx="33.52" ry="33.52"/>
   <rect class="fil0 str0" x="66.45" y="222.67" width="77.15" height="64.51" rx="9.72" ry="9.72"/>
   <rect class="fil0 str0" x="66.45" y="407.24" width="77.15" height="64.51" rx="9.72" ry="9.72"/>
   <rect class="fil0 str0" x="171.27" y="222.67" width="77.15" height="64.51" rx="9.72" ry="9.72"/>
   <rect class="fil0 str0" x="276.09" y="222.67" width="77.15" height="64.51" rx="9.72" ry="9.72"/>
   <rect class="fil0 str0" x="380.91" y="222.67" width="77.15" height="64.51" rx="9.72" ry="9.72"/>
   <rect class="fil0 str0" x="485.72" y="222.67" width="149.03" height="64.51" rx="18.77" ry="9.72"/>
   <rect class="fil0 str0" x="66.44" y="314.96" width="149.03" height="64.51" rx="18.77" ry="9.72"/>
   <rect class="fil0 str0" x="165" y="407.24" width="361.3" height="64.51" rx="45.5" ry="9.72"/>
   <rect class="fil0 str0" x="239.53" y="315" width="77.15" height="64.51" rx="9.72" ry="9.72"/>
   <rect class="fil0 str0" x="557.61" y="407.24" width="77.15" height="64.51" rx="9.72" ry="9.72"/>
   <rect class="fil0 str0" x="344.35" y="315" width="77.15" height="64.51" rx="9.72" ry="9.72"/>
   <rect class="fil0 str0" x="449.17" y="315" width="77.15" height="64.51" rx="9.72" ry="9.72"/>
   <rect class="fil0 str0" x="553.99" y="315" width="77.15" height="64.51" rx="9.72" ry="9.72"/>
  </g>
 </g>
</svg>
