<?xml version="1.0" encoding="UTF-8"?>
<!DOCTYPE svg PUBLIC "-//W3C//DTD SVG 1.1//EN" "http://www.w3.org/Graphics/SVG/1.1/DTD/svg11.dtd">
<!-- Creator: CorelDRAW 2018 (64-Bit) -->
<svg xmlns="http://www.w3.org/2000/svg" xml:space="preserve" width="0.694441in" height="0.694441in" version="1.1" style="shape-rendering:geometricPrecision; text-rendering:geometricPrecision; image-rendering:optimizeQuality; fill-rule:evenodd; clip-rule:evenodd"
viewBox="0 0 694.44 694.44"
 xmlns:xlink="http://www.w3.org/1999/xlink">
 <defs>
  <style type="text/css">
   <![CDATA[
    .str0 {stroke:#24292E;stroke-width:13.89;stroke-miterlimit:2.61313}
    .fil0 {fill:none}
   ]]>
  </style>
 </defs>
 <g id="Layer_x0020_1">
  <metadata id="CorelCorpID_0Corel-Layer"/>
  <g id="InPin">
   <rect class="fil0 str0" x="77.82" y="58.33" width="538.8" height="577.78" rx="48.34" ry="51.83"/>
   <rect class="fil0 str0" x="149.06" y="104.78" width="108.65" height="90.85" rx="13.68" ry="13.68"/>
   <rect class="fil0 str0" x="149.06" y="236.12" width="108.65" height="90.85" rx="13.68" ry="13.68"/>
   <rect class="fil0 str0" x="149.06" y="367.46" width="108.65" height="90.85" rx="13.68" ry="13.68"/>
   <rect class="fil0 str0" x="292.89" y="104.78" width="108.65" height="90.85" rx="13.68" ry="13.68"/>
   <rect class="fil0 str0" x="292.89" y="236.12" width="108.65" height="90.85" rx="13.68" ry="13.68"/>
   <rect class="fil0 str0" x="292.89" y="367.46" width="108.65" height="90.85" rx="13.68" ry="13.68"/>
   <rect class="fil0 str0" x="293.61" y="498.8" width="108.65" height="90.85" rx="13.68" ry="13.68"/>
   <rect class="fil0 str0" x="436.71" y="104.78" width="108.65" height="90.85" rx="13.68" ry="13.68"/>
   <rect class="fil0 str0" x="436.71" y="236.12" width="108.65" height="90.85" rx="13.68" ry="13.68"/>
   <rect class="fil0 str0" x="436.71" y="367.46" width="108.65" height="90.85" rx="13.68" ry="13.68"/>
  </g>
 </g>
</svg>
