<?xml version="1.0"?>
<svg xmlns="http://www.w3.org/2000/svg" height="512px" viewBox="-71 0 392 392.5" width="512px"><path d="m172.949219 45.101562 13-45.101562h-120.898438l14.699219 44.199219zm0 0" fill="#FFFFFF"/><path d="m162.351562 82 4.898438-17-80.898438-.699219 5.597657 17zm0 0" fill="#FFFFFF"/><path d="m168.449219 102.101562-82.699219-.902343c-49.601562 11.300781-85.5 56.199219-85.5 107.300781v154c.046875 16.546875 13.453125 29.953125 30 30h190c16.546875-.046875 29.953125-13.453125 30-30v-154c.054688-49.925781-33.539062-93.621094-81.800781-106.398438zm-13.097657 136.097657c5.519532 0 10 4.476562 10 10 0 5.523437-4.480468 10-10 10h-57.601562c-.066406 1.835937-.035156 3.671875.101562 5.5h51.597657c5.523437 0 10 4.476562 10 10 0 5.523437-4.476563 10-10 10h-45.398438c2.054688 3.5 4.539063 6.722656 7.398438 9.601562 13.214843 13.199219 32.960937 17.390625 50.402343 10.699219 5.132813-1.988281 10.910157.5625 12.898438 5.699219s-.5625 10.914062-5.699219 12.902343c-24.804687 9.5625-52.914062 3.605469-71.699219-15.203124-6.773437-6.722657-11.992187-14.847657-15.300781-23.796876h-11c-5.523437 0-10-4.480468-10-10 0-5.523437 4.476563-10 10-10h6.800781c-.101562-1.800781-.101562-3.703124-.101562-5.5h-6.699219c-5.523437 0-10-4.480468-10-10 0-5.523437 4.476563-10 10-10h10.300781c3.261719-9.695312 8.738282-18.496093 16-25.703124 18.804688-18.769532 46.894532-24.726563 71.699219-15.199219 5.136719 1.988281 7.6875 7.765625 5.699219 12.902343-1.988281 5.132813-7.765625 7.6875-12.898438 5.699219-22.449218-8.636719-47.800781.960938-58.902343 22.300781zm0 0" fill="#FFFFFF"/></svg>
