<?xml version="1.0" encoding="UTF-8"?>
<!DOCTYPE svg PUBLIC "-//W3C//DTD SVG 1.1//EN" "http://www.w3.org/Graphics/SVG/1.1/DTD/svg11.dtd">
<!-- Creator: CorelDRAW 2018 (64-Bit) -->
<svg xmlns="http://www.w3.org/2000/svg" xml:space="preserve" width="0.333331in" height="0.333331in" version="1.1" style="shape-rendering:geometricPrecision; text-rendering:geometricPrecision; image-rendering:optimizeQuality; fill-rule:evenodd; clip-rule:evenodd"
viewBox="0 0 333.33 333.33"
 xmlns:xlink="http://www.w3.org/1999/xlink">
 <defs>
  <style type="text/css">
   <![CDATA[
    .str0 {stroke:#F1F1F1;stroke-width:0.93;stroke-miterlimit:2.61313}
    .fil1 {fill:#F1F1F1}
    .fil0 {fill:#24292E}
   ]]>
  </style>
 </defs>
 <g id="Layer_x0020_1">
  <metadata id="CorelCorpID_0Corel-Layer"/>
  <g id="NewLogo">
   <path class="fil0 str0" d="M14.22 4.94l307.71 0c4.97,0 9.04,4.06 9.04,9.04l0 303.68 -325.78 0 0 -303.68c0,-4.97 4.06,-9.04 9.04,-9.04z"/>
   <path class="fil1 str0" d="M5.18 312.06l325.78 0 0 16.84c0,1 -0.81,1.81 -1.81,1.81l-322.17 0c-1,0 -1.81,-0.81 -1.81,-1.81l0 -16.84z"/>
   <polygon class="fil1" points="131.74,174.22 160.5,154.8 171.63,146.4 186.84,132.63 196.13,136.64 186.84,216.67 170.84,217.98 133.28,187.45 "/>
   <polygon class="fil1" points="170.43,220.31 187.87,219.27 215.33,270.57 246.96,316.58 146.24,317.9 159.35,280.2 "/>
   <polygon class="fil1" points="128.67,174.98 131.02,189.35 111.17,227.93 168.33,217.98 165.22,231.48 104.33,239.34 99.4,228.72 "/>
   <polygon class="fil1" points="176.27,63.87 184.96,57.52 218.7,106.47 197.07,135.74 188.5,129.98 206.35,104.66 "/>
   <polygon class="fil1" points="150.88,87.95 171.96,116.4 163.98,144.74 137.53,144.74 122.22,131.12 124.67,100.64 "/>
   <polygon class="fil1" points="122.22,157.07 106.69,142.34 120.6,123.82 120.15,132.9 135.81,146.57 "/>
   <polygon class="fil1" points="176.24,48.65 173.87,45.24 170.75,47.27 170.74,44.15 167.92,46.48 166.22,44.5 173.15,39.93 179.61,40.62 184.17,55.48 175.53,61.55 170.84,54.79 176.69,52.96 "/>
   <polygon class="fil1" points="169.54,46.69 157.83,56.04 161.05,57.29 162.46,57.03 170.04,60.2 169.02,52.48 169.62,50.83 "/>
   <polygon class="fil1" points="157.83,56.04 169.54,46.69 169.62,50.83 169.02,52.48 170.04,60.2 162.46,57.03 161.05,57.29 "/>
  </g>
 </g>
</svg>
