<?xml version="1.0"?>
<svg xmlns="http://www.w3.org/2000/svg" height="512px" version="1.1" viewBox="0 -5 600.05153 600" width="512px">
<g id="surface1">
<path d="M 600 30.027344 C 600 13.457031 586.566406 0.0273438 570 0.0273438 L 30 0.0273438 C 13.433594 0.0273438 0 13.457031 0 30.027344 L 0 390.027344 C 0 406.59375 13.433594 420.027344 30 420.027344 L 301.488281 420.027344 C 293.125 479.84375 321.453125 538.84375 373.367188 569.722656 C 425.28125 600.597656 490.648438 597.320312 539.21875 561.414062 C 587.789062 525.503906 610.078125 463.972656 595.78125 405.285156 C 598.550781 400.675781 600.003906 395.402344 600 390.027344 Z M 20 160.027344 L 170 160.027344 C 175.523438 160.027344 180 164.503906 180 170.027344 L 180 250.027344 C 180 255.546875 175.523438 260.027344 170 260.027344 L 20 260.027344 Z M 450 570.027344 C 378.203125 570.027344 320 511.824219 320 440.027344 C 320 368.230469 378.203125 310.027344 450 310.027344 C 521.796875 310.027344 580 368.230469 580 440.027344 C 579.917969 511.789062 521.761719 569.941406 450 570.027344 Z M 450 290.027344 C 382.632812 290.136719 323.589844 335.109375 305.582031 400.027344 L 30 400.027344 C 24.476562 400.027344 20 395.546875 20 390.027344 L 20 280.027344 L 170 280.027344 C 186.566406 280.027344 200 266.59375 200 250.027344 L 200 170.027344 C 200 153.457031 186.566406 140.027344 170 140.027344 L 20 140.027344 L 20 30.027344 C 20 24.503906 24.476562 20.027344 30 20.027344 L 570 20.027344 C 575.523438 20.027344 580 24.503906 580 30.027344 L 580 365.503906 C 553.3125 318.882812 503.726562 290.089844 450 290.027344 Z M 450 290.027344 " style=" fill-rule:nonzero;fill-opacity:1;" stroke="#FFFFFF" fill="#FFFFFF"/>
<path d="M 130 170.027344 C 107.910156 170.027344 90 187.9375 90 210.027344 C 90 232.117188 107.910156 250.027344 130 250.027344 C 152.089844 250.027344 170 232.117188 170 210.027344 C 170 187.9375 152.089844 170.027344 130 170.027344 Z M 130 230.027344 C 118.953125 230.027344 110 221.070312 110 210.027344 C 110 198.980469 118.953125 190.027344 130 190.027344 C 141.046875 190.027344 150 198.980469 150 210.027344 C 150 221.070312 141.046875 230.027344 130 230.027344 Z M 130 230.027344 " style=" fill-rule:nonzero;fill-opacity:1;" stroke="#FFFFFF" fill="#FFFFFF"/>
<path d="M 460 340.027344 L 440 340.027344 L 440 430.027344 L 350 430.027344 L 350 450.027344 L 440 450.027344 L 440 530.027344 L 460 530.027344 L 460 450.027344 L 550 450.027344 L 550 430.027344 L 460 430.027344 Z M 460 340.027344 " style=" fill-rule:nonzero;fill-opacity:1;" stroke="#FFFFFF" fill="#FFFFFF"/>
</g>
</svg>
